<svg id="svg" version="1.1" xmlns="http://www.w3.org/2000/svg" xmlns:xlink="http://www.w3.org/1999/xlink" width="400" height="400" viewBox="0, 0, 400,400"><g id="svgg"><path id="path0" d="M197.747 87.187 C 195.813 90.423,194.344 92.994,186.638 106.641 C 181.210 116.253,157.597 156.187,147.835 172.266 C 145.421 176.240,139.229 186.611,134.075 195.313 C 128.920 204.014,122.954 213.945,120.817 217.383 C 112.689 230.456,112.720 229.824,120.217 229.606 L 125.586 229.449 142.383 220.063 C 179.204 199.489,194.865 190.352,218.084 175.899 C 224.055 172.182,229.084 169.141,229.258 169.141 C 229.580 169.141,244.095 193.179,249.962 203.427 C 253.963 210.417,264.721 228.089,265.531 229.004 C 266.279 229.848,283.984 230.075,283.984 229.240 C 283.984 228.993,282.779 226.752,281.306 224.259 C 279.833 221.766,276.088 215.332,272.984 209.961 C 269.879 204.590,264.522 195.449,261.079 189.648 C 257.636 183.848,253.797 177.344,252.547 175.195 C 251.296 173.047,248.718 168.804,246.817 165.768 C 244.915 162.731,243.359 160.147,243.359 160.025 C 243.359 159.904,245.952 158.005,249.121 155.806 C 252.290 153.607,256.235 150.786,257.887 149.537 C 261.669 146.678,260.799 146.171,266.016 154.275 C 268.486 158.113,270.613 161.139,270.742 160.998 C 270.870 160.857,271.447 159.424,272.024 157.813 C 272.600 156.201,274.467 151.279,276.171 146.875 C 281.937 131.976,286.744 119.049,286.829 118.214 C 286.933 117.200,277.709 116.991,254.577 117.484 L 240.990 117.773 246.905 125.523 C 250.159 129.786,252.669 133.401,252.484 133.558 C 244.802 140.062,239.423 143.764,213.281 160.542 C 199.941 169.104,175.967 183.393,165.234 189.178 C 161.260 191.320,157.082 193.665,155.949 194.388 C 154.817 195.111,153.740 195.703,153.556 195.703 C 153.233 195.703,163.108 179.037,166.980 173.047 C 168.022 171.436,173.434 162.207,179.008 152.539 C 194.975 124.843,199.693 116.797,199.967 116.797 C 200.107 116.797,200.549 117.368,200.949 118.066 C 201.349 118.765,205.535 125.870,210.250 133.856 L 218.823 148.377 220.455 147.138 C 221.352 146.456,224.324 144.497,227.059 142.784 C 229.794 141.071,232.031 139.561,232.031 139.428 C 232.031 139.295,230.411 136.389,228.431 132.972 C 226.450 129.554,219.349 117.184,212.651 105.482 C 205.952 93.781,200.295 84.148,200.079 84.076 C 199.863 84.004,198.813 85.404,197.747 87.187 M196.341 266.588 C 179.523 272.523,179.363 297.763,196.109 303.326 C 208.206 307.343,219.683 300.258,221.093 287.901 C 222.798 272.949,209.868 261.815,196.341 266.588 M77.413 266.699 C 77.221 267.075,75.727 270.898,74.092 275.195 C 72.457 279.492,69.430 287.402,67.365 292.773 C 65.301 298.145,63.515 302.854,63.397 303.238 C 63.200 303.880,63.479 303.928,66.843 303.824 L 70.504 303.711 71.933 299.805 L 73.362 295.898 81.110 295.898 L 88.857 295.898 90.402 299.902 L 91.947 303.906 95.625 303.906 C 98.978 303.906,99.277 303.846,99.010 303.223 C 98.849 302.847,95.636 294.321,91.870 284.277 L 85.024 266.016 81.393 266.016 C 78.328 266.016,77.707 266.122,77.413 266.699 M105.469 279.421 C 105.469 294.185,105.589 295.154,107.849 298.565 C 112.505 305.594,125.238 306.423,131.553 300.108 C 135.054 296.607,135.540 293.826,135.544 277.246 L 135.547 266.016 132.067 266.016 L 128.587 266.016 128.440 279.004 C 128.251 295.711,127.405 297.652,120.313 297.652 C 113.249 297.652,112.500 295.875,112.500 279.114 L 112.500 266.016 108.984 266.016 L 105.469 266.016 105.469 279.421 M147.360 284.827 L 147.461 303.711 150.781 303.711 L 154.102 303.711 154.297 297.266 L 154.492 290.820 157.227 290.875 L 159.961 290.930 162.891 295.637 C 164.502 298.226,166.299 301.146,166.885 302.125 L 167.950 303.906 171.712 303.906 C 174.625 303.906,175.431 303.792,175.281 303.402 C 175.174 303.125,173.398 300.109,171.333 296.701 C 167.024 289.590,167.197 290.096,168.848 289.415 C 175.904 286.505,177.732 275.829,172.149 270.139 C 168.744 266.669,167.249 266.287,156.344 266.099 L 147.258 265.942 147.360 284.827 M225.781 266.185 C 225.781 266.278,226.978 268.168,228.442 270.384 C 229.905 272.601,232.557 276.731,234.336 279.563 L 237.570 284.711 233.764 290.695 C 231.672 293.987,229.315 297.646,228.529 298.828 C 227.742 300.010,226.700 301.636,226.213 302.441 L 225.327 303.906 229.238 303.906 L 233.150 303.906 237.522 297.070 C 239.927 293.311,242.004 290.238,242.139 290.241 C 242.273 290.245,244.303 293.321,246.649 297.077 L 250.916 303.906 254.962 303.906 L 259.008 303.906 257.571 301.660 C 252.151 293.188,246.875 284.779,246.875 284.611 C 246.875 284.502,249.501 280.317,252.711 275.312 L 258.547 266.211 254.624 266.099 C 249.894 265.964,250.613 265.383,246.094 272.997 C 244.053 276.436,242.295 279.259,242.188 279.270 C 242.080 279.281,240.168 276.303,237.937 272.653 L 233.883 266.016 229.832 266.016 C 227.604 266.016,225.781 266.092,225.781 266.185 M278.513 266.799 C 278.341 267.123,276.173 272.748,273.695 279.299 C 271.218 285.851,268.198 293.760,266.983 296.875 C 265.769 299.990,264.682 302.847,264.568 303.223 C 264.382 303.839,264.714 303.906,267.943 303.906 L 271.524 303.906 272.037 302.637 C 272.318 301.938,273.028 300.093,273.613 298.535 L 274.678 295.703 282.238 295.703 C 287.857 295.703,289.879 295.828,290.114 296.191 C 290.287 296.460,291.045 298.324,291.797 300.334 L 293.164 303.989 296.680 303.971 C 299.375 303.957,300.166 303.834,300.069 303.441 C 299.999 303.160,296.958 294.932,293.311 285.156 C 289.663 275.381,286.610 267.175,286.526 266.922 C 286.276 266.166,278.911 266.053,278.513 266.799 M308.594 285.156 L 308.594 303.906 312.012 303.907 L 315.430 303.907 315.430 297.559 L 315.430 291.211 318.322 291.211 L 321.214 291.211 325.022 297.461 L 328.830 303.711 332.618 303.906 C 334.701 304.014,336.455 304.014,336.516 303.906 C 336.629 303.707,334.857 300.698,330.788 294.183 C 329.528 292.165,328.545 290.473,328.604 290.424 C 328.663 290.374,329.326 290.027,330.078 289.652 C 338.142 285.631,338.721 273.027,331.048 268.530 C 328.059 266.778,325.625 266.419,316.699 266.412 L 308.594 266.406 308.594 285.156 M207.181 273.457 C 218.580 278.815,215.126 297.454,202.734 297.451 C 195.405 297.449,191.257 292.935,191.257 284.961 C 191.257 275.335,199.109 269.663,207.181 273.457 M165.542 273.434 C 169.352 275.163,169.381 281.678,165.587 283.613 C 164.341 284.249,163.281 284.375,159.195 284.375 L 154.297 284.375 154.297 278.516 L 154.297 272.656 159.082 272.665 C 162.976 272.672,164.179 272.815,165.542 273.434 M326.535 273.731 C 328.598 274.783,329.466 276.238,329.454 278.623 C 329.430 283.374,327.323 284.744,320.020 284.757 L 315.234 284.766 315.234 279.167 C 315.234 276.087,315.352 273.451,315.495 273.307 C 316.113 272.689,325.173 273.037,326.535 273.731 M83.814 281.348 C 85.045 285.054,86.133 288.306,86.232 288.574 C 86.370 288.949,85.223 289.063,81.292 289.063 C 78.476 289.063,76.172 288.918,76.172 288.741 C 76.172 288.488,78.111 283.060,81.046 275.098 C 81.384 274.179,81.579 274.619,83.814 281.348 M285.066 281.938 C 286.412 285.749,287.511 288.999,287.507 289.160 C 287.503 289.321,285.108 289.453,282.185 289.453 C 277.279 289.453,276.891 289.400,277.142 288.770 C 277.292 288.394,278.479 285.142,279.780 281.543 C 281.081 277.944,282.252 275.002,282.382 275.005 C 282.511 275.008,283.719 278.128,285.066 281.938 " stroke="none" fill="#d9dada" fill-rule="evenodd"></path><path id="path1" d="M0.000 200.000 L 0.000 400.000 200.000 400.000 L 400.000 400.000 400.000 200.000 L 400.000 0.000 200.000 0.000 L 0.000 0.000 0.000 200.000 M206.412 94.242 C 213.948 107.502,226.784 129.891,229.908 135.226 C 232.753 140.084,233.101 139.207,226.758 143.161 C 224.395 144.634,221.618 146.445,220.587 147.185 C 219.557 147.925,218.666 148.466,218.608 148.387 C 218.550 148.307,217.213 146.045,215.637 143.359 C 214.062 140.674,211.367 136.104,209.649 133.203 C 202.659 121.404,200.391 117.469,200.391 117.141 C 200.391 115.780,199.548 117.170,184.373 143.555 C 173.192 162.994,168.924 170.283,166.414 174.219 C 164.976 176.475,161.981 181.396,159.759 185.156 C 157.538 188.916,155.224 192.727,154.618 193.625 C 153.120 195.845,153.169 195.865,155.957 194.174 C 157.300 193.360,161.702 190.907,165.741 188.723 C 169.779 186.539,175.931 183.058,179.413 180.987 C 195.863 171.202,198.879 169.375,208.008 163.663 C 213.379 160.301,220.059 156.054,222.852 154.224 C 225.645 152.394,230.830 149.005,234.375 146.692 C 240.901 142.435,252.344 133.801,252.344 133.134 C 252.344 132.934,251.410 131.594,250.269 130.155 C 246.414 125.294,241.016 118.003,241.016 117.657 C 241.016 117.275,286.126 116.626,286.730 116.999 C 287.567 117.516,286.924 119.360,275.972 147.852 C 273.990 153.008,272.067 158.149,271.700 159.277 C 270.801 162.032,271.054 162.248,265.848 154.290 L 261.244 147.253 259.431 148.622 C 258.433 149.375,254.805 151.959,251.367 154.364 C 247.930 156.769,244.735 159.027,244.267 159.382 L 243.417 160.028 245.869 163.901 C 247.217 166.031,251.015 172.344,254.308 177.930 C 257.601 183.516,263.318 193.184,267.014 199.414 C 270.710 205.645,275.266 213.467,277.140 216.797 C 279.014 220.127,281.333 224.126,282.294 225.685 C 284.930 229.958,285.311 229.754,274.805 229.707 C 266.002 229.667,265.807 229.649,265.157 228.798 C 264.265 227.629,255.831 213.757,251.449 206.250 C 248.076 200.471,229.684 169.479,229.465 169.205 C 229.407 169.133,224.732 171.962,219.075 175.491 C 196.762 189.412,175.644 201.723,142.188 220.313 C 123.362 230.773,125.934 229.688,119.985 229.688 C 112.599 229.688,112.557 230.377,120.755 217.188 C 123.225 213.213,127.323 206.445,129.861 202.148 C 132.399 197.852,141.463 182.646,150.003 168.359 C 170.885 133.425,182.142 114.343,187.683 104.492 C 197.610 86.841,199.341 83.982,200.093 83.989 C 200.364 83.991,203.208 88.605,206.412 94.242 M206.750 265.809 C 217.154 268.014,223.732 279.483,220.878 290.445 C 215.245 312.085,183.594 307.801,183.594 285.399 C 183.594 272.056,194.138 263.137,206.750 265.809 M85.535 266.895 C 86.320 268.803,99.219 303.511,99.219 303.716 C 99.219 303.836,97.505 303.884,95.410 303.823 L 91.602 303.711 90.234 299.906 L 88.867 296.101 81.180 296.098 L 73.494 296.094 72.666 298.340 C 72.211 299.575,71.559 301.333,71.218 302.246 L 70.597 303.906 66.744 303.906 C 64.625 303.906,62.891 303.816,62.891 303.706 C 62.891 303.595,63.070 303.200,63.290 302.827 C 63.509 302.454,66.123 295.732,69.098 287.891 C 72.073 280.049,75.169 271.919,75.977 269.824 L 77.447 266.016 81.310 266.016 C 84.948 266.016,85.194 266.067,85.535 266.895 M112.574 279.395 C 112.726 296.167,113.199 297.279,120.170 297.257 C 127.497 297.234,127.899 296.323,128.046 279.395 L 128.163 266.016 131.878 266.016 L 135.592 266.016 135.461 279.980 C 135.341 292.792,135.266 294.104,134.559 295.861 C 129.886 307.482,110.833 307.505,106.230 295.896 C 105.327 293.616,105.298 293.194,105.160 279.785 L 105.017 266.016 108.735 266.016 L 112.453 266.016 112.574 279.395 M168.841 267.497 C 177.598 271.810,178.091 284.376,169.690 289.117 L 167.627 290.282 170.976 295.824 C 172.818 298.873,174.653 301.834,175.053 302.404 C 176.115 303.916,176.135 303.906,171.774 303.906 L 167.766 303.906 163.864 297.462 L 159.961 291.017 157.129 291.016 L 154.297 291.016 154.297 297.461 L 154.297 303.906 150.781 303.906 L 147.266 303.906 147.266 284.930 L 147.266 265.955 156.748 266.083 L 166.231 266.211 168.841 267.497 M237.986 272.461 C 240.103 275.898,241.958 278.748,242.109 278.793 C 242.259 278.838,244.119 275.982,246.241 272.445 L 250.100 266.016 254.347 266.016 C 256.683 266.016,258.594 266.110,258.594 266.225 C 258.594 266.341,256.425 269.813,253.773 273.940 C 251.122 278.068,248.501 282.164,247.949 283.043 L 246.945 284.640 252.964 294.120 C 256.275 299.334,258.984 303.757,258.984 303.949 C 258.984 304.140,257.254 304.297,255.139 304.297 C 250.565 304.297,251.433 305.041,246.094 296.553 L 242.083 290.177 240.531 292.647 C 239.678 294.006,237.724 297.083,236.189 299.487 L 233.398 303.856 229.551 303.979 C 227.436 304.046,225.623 303.969,225.523 303.807 C 225.424 303.645,227.990 299.400,231.226 294.374 C 234.462 289.347,237.109 285.017,237.109 284.751 C 237.109 284.180,236.156 282.608,230.217 273.383 C 227.777 269.594,225.781 266.380,225.781 266.241 C 225.781 266.103,227.662 266.039,229.960 266.100 L 234.138 266.211 237.986 272.461 M293.382 284.932 C 297.237 295.228,300.391 303.797,300.391 303.975 C 300.391 304.152,298.733 304.297,296.708 304.297 L 293.025 304.297 292.262 302.246 C 291.842 301.118,291.173 299.272,290.775 298.145 L 290.051 296.094 282.388 296.094 L 274.726 296.094 273.197 300.098 L 271.668 304.102 268.194 304.215 C 263.640 304.364,263.708 304.721,266.795 296.875 C 268.917 291.479,277.519 268.818,278.327 266.490 C 278.457 266.116,279.502 266.016,282.437 266.100 L 286.373 266.211 293.382 284.932 M324.645 266.429 C 337.504 267.700,341.508 284.370,330.244 289.741 C 328.605 290.523,328.392 289.923,332.973 297.414 C 337.528 304.864,337.534 304.297,332.903 304.297 L 329.087 304.297 325.491 298.496 C 323.513 295.305,321.784 292.405,321.648 292.050 C 321.449 291.532,320.835 291.406,318.513 291.406 L 315.625 291.406 315.625 297.866 L 315.625 304.326 312.012 304.214 L 308.398 304.102 308.504 285.352 C 308.561 275.039,308.605 266.459,308.601 266.285 C 308.592 265.907,320.441 266.013,324.645 266.429 M154.495 272.979 C 154.386 273.088,154.297 275.697,154.297 278.776 L 154.297 284.375 158.902 284.375 C 165.953 284.375,168.180 282.892,168.140 278.224 C 168.121 275.974,167.239 274.365,165.590 273.569 C 164.656 273.119,154.876 272.598,154.495 272.979 M198.438 273.165 C 192.860 274.914,189.653 283.682,192.166 290.311 C 195.747 299.759,209.362 299.763,212.899 290.317 C 216.760 280.003,208.368 270.049,198.438 273.165 M315.625 278.907 L 315.625 284.860 320.410 284.691 C 327.118 284.453,329.292 283.059,329.295 278.991 C 329.299 274.474,327.645 273.356,320.605 273.121 L 315.625 272.954 315.625 278.907 M81.071 275.432 C 80.962 275.732,79.918 278.613,78.751 281.836 C 77.583 285.059,76.506 288.003,76.358 288.379 C 76.109 289.009,76.489 289.063,81.198 289.063 L 86.308 289.063 83.926 282.129 C 81.335 274.584,81.359 274.639,81.071 275.432 M279.974 281.543 C 278.774 284.927,277.672 288.003,277.526 288.379 C 277.281 289.008,277.660 289.063,282.319 289.063 L 287.377 289.063 284.997 282.228 C 283.688 278.469,282.514 275.393,282.387 275.392 C 282.260 275.391,281.174 278.159,279.974 281.543 " stroke="none" fill="#04131b" fill-rule="evenodd"></path><path id="path2" d="M271.598 117.087 C 273.057 117.162,275.343 117.162,276.676 117.086 C 278.010 117.010,276.816 116.948,274.023 116.949 C 271.230 116.949,270.139 117.012,271.598 117.087 M313.965 266.305 C 315.308 266.381,317.505 266.381,318.848 266.305 C 320.190 266.229,319.092 266.166,316.406 266.166 C 313.721 266.166,312.622 266.229,313.965 266.305 M105.245 275.195 C 105.245 279.922,105.301 281.802,105.370 279.373 C 105.439 276.944,105.438 273.077,105.369 270.779 C 105.300 268.481,105.244 270.469,105.245 275.195 M159.082 272.941 C 159.888 273.025,161.206 273.025,162.012 272.941 C 162.817 272.857,162.158 272.788,160.547 272.788 C 158.936 272.788,158.276 272.857,159.082 272.941 M175.481 278.516 C 175.481 279.268,175.562 279.575,175.660 279.199 C 175.758 278.823,175.758 278.208,175.660 277.832 C 175.562 277.456,175.481 277.764,175.481 278.516 M308.372 293.945 C 308.372 299.102,308.427 301.157,308.495 298.513 C 308.563 295.869,308.563 291.650,308.495 289.138 C 308.427 286.626,308.371 288.789,308.372 293.945 M119.438 297.542 C 119.924 297.635,120.627 297.632,121.001 297.534 C 121.374 297.436,120.977 297.360,120.117 297.364 C 119.258 297.368,118.952 297.448,119.438 297.542 M253.027 304.194 C 254.155 304.273,256.001 304.273,257.129 304.194 C 258.257 304.115,257.334 304.051,255.078 304.051 C 252.822 304.051,251.899 304.115,253.027 304.194 M266.699 304.192 C 267.612 304.275,269.106 304.275,270.020 304.192 C 270.933 304.110,270.186 304.043,268.359 304.043 C 266.533 304.043,265.786 304.110,266.699 304.192 " stroke="none" fill="#5d6067" fill-rule="evenodd"></path><path id="path3" d="M279.594 117.073 C 280.080 117.167,280.783 117.163,281.157 117.065 C 281.530 116.967,281.133 116.891,280.273 116.895 C 279.414 116.900,279.108 116.980,279.594 117.073 M309.863 266.285 C 310.239 266.383,310.854 266.383,311.230 266.285 C 311.606 266.187,311.299 266.106,310.547 266.106 C 309.795 266.106,309.487 266.187,309.863 266.285 M128.216 269.141 C 128.216 269.893,128.296 270.200,128.394 269.824 C 128.493 269.448,128.493 268.833,128.394 268.457 C 128.296 268.081,128.216 268.389,128.216 269.141 M128.279 279.492 C 128.280 282.500,128.341 283.679,128.415 282.112 C 128.490 280.545,128.489 278.084,128.414 276.643 C 128.339 275.202,128.279 276.484,128.279 279.492 M105.195 285.547 C 105.195 286.729,105.268 287.212,105.358 286.621 C 105.447 286.030,105.447 285.063,105.358 284.473 C 105.268 283.882,105.195 284.365,105.195 285.547 M282.520 289.347 C 283.325 289.431,284.644 289.431,285.449 289.347 C 286.255 289.263,285.596 289.194,283.984 289.194 C 282.373 289.194,281.714 289.263,282.520 289.347 M316.895 291.300 C 317.700 291.384,319.019 291.384,319.824 291.300 C 320.630 291.216,319.971 291.147,318.359 291.147 C 316.748 291.147,316.089 291.216,316.895 291.300 M77.422 295.994 C 79.291 296.065,82.455 296.065,84.453 295.994 C 86.451 295.923,84.922 295.865,81.055 295.865 C 77.188 295.864,75.553 295.922,77.422 295.994 M310.441 304.188 C 311.134 304.274,312.364 304.276,313.175 304.191 C 313.985 304.107,313.418 304.036,311.914 304.034 C 310.410 304.033,309.747 304.102,310.441 304.188 " stroke="none" fill="#777984" fill-rule="evenodd"></path><path id="path4" d="M282.715 117.079 C 283.413 117.166,284.556 117.166,285.254 117.079 C 285.952 116.993,285.381 116.922,283.984 116.922 C 282.588 116.922,282.017 116.993,282.715 117.079 M245.996 117.479 C 248.628 117.547,252.935 117.547,255.566 117.479 C 258.198 117.412,256.045 117.356,250.781 117.356 C 245.518 117.356,243.364 117.412,245.996 117.479 M280.957 266.303 C 281.978 266.383,283.647 266.383,284.668 266.303 C 285.688 266.222,284.854 266.156,282.813 266.156 C 280.771 266.156,279.937 266.222,280.957 266.303 M214.453 269.653 C 214.453 269.721,215.024 270.292,215.723 270.923 L 216.992 272.070 215.845 270.801 C 214.775 269.617,214.453 269.352,214.453 269.653 M315.388 278.711 C 315.389 281.719,315.450 282.898,315.525 281.331 C 315.599 279.764,315.599 277.303,315.524 275.862 C 315.449 274.421,315.388 275.703,315.388 278.711 M336.435 278.906 C 336.435 279.873,336.511 280.269,336.604 279.785 C 336.697 279.302,336.697 278.511,336.604 278.027 C 336.511 277.544,336.435 277.939,336.435 278.906 M128.250 287.109 C 128.250 288.506,128.321 289.077,128.408 288.379 C 128.494 287.681,128.494 286.538,128.408 285.840 C 128.321 285.142,128.250 285.713,128.250 287.109 M315.391 297.070 C 315.391 300.293,315.452 301.559,315.525 299.884 C 315.598 298.210,315.598 295.573,315.524 294.025 C 315.450 292.477,315.390 293.848,315.391 297.070 M279.024 295.995 C 281.130 296.065,284.470 296.065,286.446 295.994 C 288.422 295.923,286.699 295.866,282.617 295.866 C 278.535 295.866,276.918 295.924,279.024 295.995 M295.225 304.193 C 296.144 304.275,297.550 304.274,298.350 304.190 C 299.150 304.106,298.398 304.039,296.680 304.040 C 294.961 304.042,294.306 304.110,295.225 304.193 M330.969 304.194 C 331.996 304.275,333.578 304.274,334.484 304.192 C 335.391 304.110,334.551 304.044,332.617 304.045 C 330.684 304.046,329.942 304.113,330.969 304.194 " stroke="none" fill="#7c848a" fill-rule="evenodd"></path></g></svg>
